<svg width="48" height="46" viewBox="0 0 48 46" fill="none" xmlns="http://www.w3.org/2000/svg">
<path id="Vector" fill-rule="evenodd" clip-rule="evenodd" d="M23.2762 45.3358L12.6508 41.5235V25.9538L23.2762 29.5726V45.3358ZM25.2122 45.3358L35.8377 41.5235V25.9538L25.2122 29.5756V45.3358ZM13.7453 24.7848L24.4676 21.7573L34.4393 24.9739L24.4676 28.3589L13.7453 24.7848ZM10.6299 23.5934L0 19.7692V4.17722L10.6255 7.79598L10.6299 23.5934ZM12.5763 23.5934L23.2018 19.7811V4.17722L12.5733 7.81385L12.5763 23.5934ZM1.10946 3.04244L11.8317 0L21.8034 3.21668L11.8317 6.60164L1.10946 3.04244ZM35.4386 23.5934L24.8131 19.7811V4.17722L35.4386 7.79598V23.5934ZM37.3745 23.5934L48 19.7811V4.17722L37.3745 7.79598V23.5934ZM25.9077 3.04244L36.6299 0.014892L46.6016 3.23157L36.6299 6.61653L25.9077 3.04244Z" fill="#FF9900"/>
</svg>
