<svg width="63" height="60" viewBox="0 0 63 60" fill="none" xmlns="http://www.w3.org/2000/svg">
<g clip-path="url(#clip0_4039_3698)">
<path d="M20.9676 0.0606699H39.2922L20.2693 57.8996C20.172 58.195 20.0305 58.4731 19.8497 58.7238C19.6693 58.9746 19.4518 59.1946 19.2049 59.3764C18.9579 59.5582 18.6854 59.6995 18.3959 59.7948C18.1064 59.8901 17.8044 59.9393 17.501 59.9393H3.23979C2.77685 59.9393 2.32011 59.8265 1.90827 59.609C1.49599 59.3921 1.1401 59.0774 0.870145 58.6912C0.600014 58.305 0.423295 57.8584 0.354568 57.3883C0.285669 56.9183 0.327473 56.438 0.475333 55.9878L18.1985 2.09873C18.2953 1.80338 18.4369 1.5255 18.6181 1.27461C18.7984 1.02373 19.0168 0.803803 19.2629 0.62199C19.5099 0.440176 19.7824 0.298854 20.0719 0.20358C20.3614 0.108307 20.6633 0.059082 20.9668 0.059082V0.059876L20.9676 0.0606699Z" fill="url(#paint0_linear_4039_3698)"/>
<path d="M54.7478 59.9392H38.2935C38.11 59.9392 37.9266 59.9217 37.7454 59.886C37.565 59.8511 37.3878 59.7987 37.2167 59.7296C37.0456 59.6605 36.8815 59.5748 36.7259 59.4747C36.5705 59.374 36.4245 59.2587 36.29 59.1302L17.6178 41.2457C17.4203 41.0566 17.2827 40.811 17.223 40.5407C17.1633 40.2704 17.1843 39.988 17.2833 39.7301C17.3823 39.4722 17.5547 39.2509 17.778 39.0949C18.0018 38.9393 18.2657 38.856 18.5359 38.856H47.594L54.7463 59.94L54.7478 59.9392Z" fill="#0078D4"/>
<path d="M39.358 0.0605841L26.5305 38.8599L47.4896 38.8552L54.679 59.9392H38.2866C38.117 59.9376 37.9475 59.9217 37.7803 59.8908C37.6131 59.8598 37.449 59.8145 37.2895 59.7542C36.9697 59.6347 36.6723 59.4599 36.4101 59.2374L23.8055 47.1725L20.277 57.8448C20.1856 58.1115 20.0602 58.3648 19.9039 58.5974C19.5904 59.0654 19.1617 59.4399 18.6614 59.6828C18.4122 59.8036 18.1485 59.8899 17.8772 59.9392H3.24825C2.78067 59.9408 2.31928 59.8265 1.90357 59.6057C1.48779 59.3852 1.1299 59.0653 0.860136 58.6729C0.590377 58.2806 0.416684 57.8274 0.353739 57.3517C0.291022 56.8758 0.340669 56.3914 0.498503 55.9393L18.193 2.13913C18.2851 1.83823 18.4237 1.55479 18.6033 1.29914C18.7821 1.04349 19.0004 0.818009 19.2482 0.632225C19.4959 0.446442 19.7715 0.301944 20.0633 0.205082C20.3552 0.108221 20.661 0.0589962 20.9683 0.0605841H39.3588H39.358Z" fill="url(#paint1_linear_4039_3698)"/>
<path d="M62.0961 55.9879C62.2441 56.4383 62.2857 56.9183 62.2177 57.3885C62.1489 57.8584 61.9724 58.3049 61.7029 58.6913C61.4328 59.0773 61.0771 59.3919 60.665 59.6089C60.253 59.8259 59.7964 59.9392 59.3332 59.9394H38.9099C39.3728 59.9394 39.8296 59.8259 40.2422 59.6091C40.654 59.3924 41.0101 59.0772 41.2803 58.6913C41.5505 58.3055 41.727 57.8585 41.7959 57.3885C41.8648 56.9184 41.823 56.4381 41.6751 55.9879L23.9512 2.09726C23.7561 1.50362 23.3843 0.987684 22.8883 0.622111C22.6421 0.440297 22.3696 0.299769 22.0809 0.204495C21.7921 0.109222 21.4902 0.060791 21.1875 0.060791H41.6101C41.9135 0.060791 42.2147 0.109222 42.5042 0.204495C42.793 0.299769 43.0655 0.441091 43.3124 0.622111C43.5586 0.803924 43.7761 1.02385 43.9565 1.27394C44.1369 1.52403 44.2778 1.80191 44.3753 2.09726L62.0992 55.9879H62.0961Z" fill="url(#paint2_linear_4039_3698)"/>
</g>
<defs>
<linearGradient id="paint0_linear_4039_3698" x1="27.6554" y1="4.49883" x2="7.73076" y2="61.8891" gradientUnits="userSpaceOnUse">
<stop stop-color="#114A8B"/>
<stop offset="1" stop-color="#0669BC"/>
</linearGradient>
<linearGradient id="paint1_linear_4039_3698" x1="33.593" y1="31.3818" x2="29.1656" y2="32.846" gradientUnits="userSpaceOnUse">
<stop stop-opacity="0.3"/>
<stop offset="0.1" stop-opacity="0.2"/>
<stop offset="0.3" stop-opacity="0.1"/>
<stop offset="0.6" stop-opacity="0.1"/>
<stop offset="1" stop-opacity="0"/>
</linearGradient>
<linearGradient id="paint2_linear_4039_3698" x1="31.1623" y1="2.81578" x2="53.0075" y2="59.5611" gradientUnits="userSpaceOnUse">
<stop stop-color="#3CCBF4"/>
<stop offset="1" stop-color="#2892DF"/>
</linearGradient>
<clipPath id="clip0_4039_3698">
<rect width="62" height="60" fill="white" transform="translate(0.285645)"/>
</clipPath>
</defs>
</svg>
