<svg width="48" height="48" viewBox="0 0 48 48" fill="none" xmlns="http://www.w3.org/2000/svg">
<g id="google_cloud-icon 1">
<path id="Vector" d="M30.5446 15.3663L32.0821 15.3926L36.2596 11.2151L36.4621 9.44506C33.1486 6.49306 28.7738 4.69531 23.9933 4.69531C15.3383 4.69531 8.03334 10.5843 5.87109 18.5613C6.32709 18.2433 7.30209 18.4818 7.30209 18.4818L15.6496 17.1093C15.6496 17.1093 16.0786 16.3991 16.2961 16.4343C17.2722 15.3619 18.4615 14.5053 19.7879 13.9194C21.1143 13.3334 22.5485 13.031 23.9986 13.0316C26.4736 13.0368 28.7536 13.9113 30.5446 15.3581V15.3663Z" fill="#EA4335"/>
<path id="Vector_2" d="M42.1272 18.5781C41.1574 15.0006 39.1587 11.8416 36.4609 9.44531L30.5457 15.3606C32.9157 17.2731 34.4359 20.1996 34.4359 23.4756V24.5196C37.3137 24.5196 39.6514 26.8626 39.6514 29.7351C39.6514 32.6128 37.3084 34.9506 34.4359 34.9506H24.0049L22.9609 36.0006V42.2601L24.0049 43.2988H34.4359C38.0316 43.2939 41.4786 41.8633 44.0212 39.3209C46.5638 36.7784 47.9945 33.3315 47.9997 29.7358C47.9944 25.1196 45.6747 21.0351 42.1272 18.5781Z" fill="#4285F4"/>
<path id="Vector_3" d="M13.5624 43.3059H23.9874V34.9509H13.5624C12.8218 34.951 12.0897 34.7919 11.4159 34.4844L9.91069 34.9456L5.73319 39.1231L5.36719 40.5331C7.72135 42.3291 10.6007 43.3012 13.5617 43.2999L13.5624 43.3059Z" fill="#34A853"/>
<path id="Vector_4" d="M13.5637 16.1719C9.96807 16.1768 6.52107 17.6074 3.97847 20.1498C1.43587 22.6923 0.00515879 26.1392 0 29.7349C0 34.1396 2.10975 38.0561 5.3745 40.5371L11.4225 34.4891C10.5071 34.0763 9.73012 33.4083 9.18484 32.565C8.63956 31.7217 8.34908 30.7391 8.34825 29.7349C8.34825 26.8571 10.6912 24.5194 13.5637 24.5194C15.6787 24.5194 17.4967 25.7944 18.3187 27.5944L24.3667 21.5464C21.8865 18.2816 17.9692 16.1719 13.5645 16.1719H13.5637Z" fill="#FBBC05"/>
</g>
</svg>
