<svg width="53" height="52" viewBox="0 0 53 52" fill="none" xmlns="http://www.w3.org/2000/svg">
<g clip-path="url(#clip0_4006_5232)">
<path d="M0.428589 0H52.4286V52H0.428589V0Z" fill="#F7DF1E"/>
<path d="M14.1013 43.4549L18.0805 41.0466C18.8483 42.4078 19.5467 43.5595 21.2218 43.5595C22.8275 43.5595 23.8401 42.9314 23.8401 40.4882V23.873H28.7267V40.5573C28.7267 45.6186 25.7598 47.9224 21.4312 47.9224C17.5221 47.9224 15.253 45.8978 14.1011 43.4545M31.3809 42.9312L35.3597 40.6276C36.4072 42.3381 37.7686 43.5946 40.1768 43.5946C42.2018 43.5946 43.4929 42.5822 43.4929 41.186C43.4929 39.5106 42.1664 38.9171 39.9325 37.94L38.7111 37.416C35.1854 35.9155 32.8469 34.0305 32.8469 30.0513C32.8469 26.3861 35.6392 23.5935 40.0026 23.5935C43.1092 23.5935 45.3431 24.6758 46.9486 27.5031L43.1437 29.9466C42.3058 28.4458 41.3986 27.8524 40.0024 27.8524C38.5711 27.8524 37.6636 28.76 37.6636 29.9466C37.6636 31.4126 38.5711 32.0063 40.6654 32.9139L41.8869 33.4374C46.0409 35.2177 48.3794 37.0327 48.3794 41.1163C48.3794 45.5148 44.9239 47.923 40.2814 47.923C35.7438 47.923 32.8117 45.7589 31.3807 42.9314" fill="black"/>
</g>
<defs>
<clipPath id="clip0_4006_5232">
<rect width="52" height="52" fill="white" transform="translate(0.428589)"/>
</clipPath>
</defs>
</svg>
