<svg width="63" height="68" viewBox="0 0 63 68" fill="none" xmlns="http://www.w3.org/2000/svg">
<g clip-path="url(#clip0_4006_5271)">
<path d="M29.0668 0.863189C30.7525 -0.0977328 32.9482 -0.102073 34.6325 0.863189C43.106 5.63139 51.5821 10.3921 60.0542 15.1632C61.6477 16.0571 62.7135 17.8232 62.6973 19.6517V48.339C62.7092 50.2432 61.538 52.0515 59.8568 52.9251C51.4112 57.6671 42.9699 62.4148 34.5257 67.1567C32.8051 68.1364 30.5653 68.0609 28.8985 67.0009C26.3665 65.5392 23.8301 64.0846 21.2979 62.6243C20.7804 62.3171 20.1971 62.0726 19.8318 61.573C20.1548 61.1394 20.7323 61.0854 21.2015 60.8961C22.2584 60.5614 23.2292 60.0242 24.2001 59.5028C24.4456 59.3355 24.7454 59.3996 24.9808 59.5494C27.1459 60.7857 29.292 62.0579 31.4644 63.2824C31.9278 63.5488 32.3971 63.1951 32.7932 62.9752C41.081 58.3104 49.379 53.6633 57.6653 48.9971C57.9723 48.85 58.142 48.5254 58.1171 48.1905C58.1229 38.7271 58.1186 29.2621 58.12 19.7988C58.1551 19.4188 57.9343 19.0693 57.5893 18.9138C49.1729 14.1936 40.7609 9.46616 32.346 4.74474C32.2002 4.64492 32.0275 4.59136 31.8506 4.5911C31.6737 4.59084 31.5008 4.6439 31.3547 4.74329C22.9398 9.46616 14.5293 14.1979 6.11436 18.9179C5.77053 19.0737 5.53977 19.4173 5.58069 19.7988C5.58215 29.2621 5.58069 38.7271 5.58069 48.1919C5.5661 48.3553 5.60214 48.5193 5.68396 48.6617C5.76579 48.8041 5.88946 48.9181 6.03833 48.9884C8.28388 50.2565 10.5323 51.5157 12.7794 52.7795C14.0452 53.4581 15.5995 53.8612 16.9942 53.3414C18.225 52.9018 19.0877 51.651 19.0642 50.3496C19.0758 40.9415 19.0584 31.5319 19.0729 22.1252C19.0422 21.7076 19.44 21.3625 19.8477 21.4018C20.9267 21.3946 22.0071 21.3874 23.0861 21.4047C23.5364 21.3946 23.8464 21.8443 23.7907 22.2651C23.7863 31.7328 23.8023 41.2007 23.7834 50.6684C23.7863 53.1916 22.7454 55.9372 20.4017 57.1718C17.5145 58.6613 13.946 58.3454 11.0936 56.9171C8.62432 55.6898 6.26787 54.2413 3.84241 52.9264C2.15691 52.0575 0.991518 50.242 1.00338 48.3392V19.6517C0.985706 17.7853 2.09396 15.9872 3.73708 15.1063C12.1813 10.3605 20.624 5.61113 29.0668 0.863189Z" fill="#8CC84B"/>
<path d="M36.4335 20.7351C40.1164 20.499 44.0591 20.5953 47.3732 22.4021C49.9391 23.7867 51.3616 26.6926 51.4069 29.5315C51.3352 29.9144 50.9333 30.1256 50.5662 30.0993C49.4977 30.0979 48.4289 30.1138 47.3603 30.0921C46.9071 30.1095 46.6436 29.6933 46.5867 29.2942C46.2797 27.9359 45.5359 26.5906 44.2521 25.9354C42.2813 24.9528 39.9963 25.0022 37.8474 25.0227C36.2786 25.1057 34.5916 25.241 33.2625 26.1597C32.2422 26.8556 31.9323 28.2604 32.2964 29.3918C32.6398 30.2042 33.5814 30.4663 34.3519 30.708C38.7902 31.864 43.4935 31.7489 47.847 33.2703C49.6495 33.8905 51.4127 35.0961 52.0297 36.9755C52.8367 39.4944 52.4829 42.5052 50.6834 44.5274C49.2241 46.1915 47.0986 47.0972 44.9787 47.5891C42.1586 48.2153 39.2319 48.2312 36.3679 47.9532C33.6749 47.6474 30.8724 46.9428 28.7935 45.1155C27.0157 43.5783 26.1474 41.1831 26.2336 38.8713C26.2542 38.4809 26.6445 38.2087 27.0201 38.2408C28.0961 38.2321 29.1722 38.2292 30.2482 38.2422C30.678 38.2116 30.9967 38.5815 31.0187 38.9849C31.2172 40.2791 31.7056 41.6374 32.8388 42.4047C35.0258 43.8098 37.7699 43.7136 40.274 43.7529C42.3486 43.6612 44.6775 43.6335 46.3705 42.268C47.2637 41.4891 47.5284 40.186 47.287 39.065C47.0255 38.1185 46.0313 37.6775 45.1775 37.3891C40.7961 36.0088 36.0403 36.5097 31.7013 34.9488C29.9397 34.3288 28.2363 33.1567 27.5596 31.3544C26.6152 28.8037 27.0479 25.6487 29.0361 23.6948C30.9746 21.7513 33.773 21.003 36.4335 20.7351Z" fill="#8CC84B"/>
</g>
<defs>
<clipPath id="clip0_4006_5271">
<rect width="62" height="68" fill="white" transform="translate(0.857178)"/>
</clipPath>
</defs>
</svg>
