<svg width="56" height="62" viewBox="0 0 56 62" fill="none" xmlns="http://www.w3.org/2000/svg">
<g clip-path="url(#clip0_132_106666)">
<path d="M55.0715 31.0055C55.0715 27.401 50.5088 23.9851 43.5132 21.8667C45.1276 14.813 44.4101 9.20109 41.2487 7.40439C40.52 6.98294 39.6679 6.78331 38.7374 6.78331V9.25654C39.2531 9.25654 39.6679 9.35636 40.0155 9.5449C41.5401 10.41 42.2016 13.7039 41.6859 17.9406C41.5626 18.9831 41.3608 20.0811 41.1141 21.2013C38.9168 20.6689 36.5177 20.2586 33.9953 19.9924C32.4818 17.9406 30.9123 16.0774 29.3316 14.447C32.9863 11.0865 36.4168 9.24545 38.7487 9.24545V6.77222C35.6657 6.77222 31.6298 8.946 27.5491 12.7169C23.4684 8.96819 19.4325 6.81658 16.3496 6.81658V9.28982C18.6702 9.28982 22.1119 11.1198 25.7666 14.4581C24.1971 16.0884 22.6276 17.9406 21.1366 19.9924C18.6029 20.2586 16.2038 20.6689 14.0065 21.2124C13.7487 20.1033 13.5581 19.0275 13.4236 17.9961C12.8966 13.7594 13.5469 10.4654 15.0603 9.58927C15.3966 9.38963 15.8339 9.30091 16.3496 9.30091V6.82767C15.4079 6.82767 14.5558 7.0273 13.8159 7.44875C10.6657 9.24545 9.95943 14.8463 11.585 21.8778C4.61189 24.0072 0.0715332 27.4121 0.0715332 31.0055C0.0715332 34.61 4.63431 38.0259 11.6298 40.1443C10.0155 47.198 10.733 52.8099 13.8944 54.6066C14.6231 55.028 15.4751 55.2277 16.4168 55.2277C19.4998 55.2277 23.5357 53.0539 27.6164 49.283C31.6971 53.0317 35.733 55.1833 38.8159 55.1833C39.7576 55.1833 40.6097 54.9837 41.3496 54.5622C44.4998 52.7655 45.2061 47.1647 43.5805 40.1332C50.5312 38.0148 55.0715 34.5989 55.0715 31.0055ZM40.4751 23.608C40.0603 25.0387 39.5446 26.5137 38.9617 27.9888C38.502 27.1016 38.02 26.2143 37.4931 25.327C36.9774 24.4398 36.428 23.5747 35.8787 22.7318C37.4706 22.9647 39.0065 23.2531 40.4751 23.608ZM35.3406 35.4196C34.4662 36.9169 33.5693 38.3365 32.6388 39.6563C30.9684 39.8005 29.2756 39.8781 27.5715 39.8781C25.8787 39.8781 24.1859 39.8005 22.5267 39.6674C21.5962 38.3476 20.6881 36.939 19.8137 35.4529C18.9617 34 18.1881 32.5249 17.4818 31.0388C18.1769 29.5526 18.9617 28.0664 19.8025 26.6136C20.6769 25.1163 21.5738 23.6967 22.5043 22.3769C24.1747 22.2327 25.8675 22.1551 27.5715 22.1551C29.2644 22.1551 30.9572 22.2327 32.6164 22.3658C33.5469 23.6856 34.4549 25.0941 35.3294 26.5803C36.1814 28.0332 36.9549 29.5082 37.6612 30.9944C36.9549 32.4806 36.1814 33.9667 35.3406 35.4196ZM38.9617 33.9778C39.567 35.464 40.0827 36.9501 40.5088 38.3919C39.0401 38.7468 37.4931 39.0463 35.8899 39.2792C36.4392 38.4252 36.9886 37.549 37.5043 36.6507C38.02 35.7634 38.502 34.8651 38.9617 33.9778ZM27.594 45.8116C26.5514 44.7469 25.5088 43.5602 24.4774 42.2626C25.4863 42.307 26.5177 42.3402 27.5603 42.3402C28.6141 42.3402 29.6567 42.3181 30.6769 42.2626C29.6679 43.5602 28.6253 44.7469 27.594 45.8116ZM19.2531 39.2792C17.6612 39.0463 16.1253 38.7579 14.6567 38.403C15.0715 36.9723 15.5872 35.4972 16.1702 34.0222C16.6298 34.9094 17.1119 35.7967 17.6388 36.684C18.1657 37.5712 18.7038 38.4363 19.2531 39.2792ZM27.5379 16.1994C28.5805 17.2641 29.6231 18.4508 30.6545 19.7484C29.6455 19.704 28.6141 19.6708 27.5715 19.6708C26.5177 19.6708 25.4751 19.6929 24.4549 19.7484C25.4639 18.4508 26.5065 17.2641 27.5379 16.1994ZM19.2419 22.7318C18.6926 23.5858 18.1433 24.462 17.6276 25.3603C17.1119 26.2476 16.6298 27.1348 16.1702 28.0221C15.5648 26.5359 15.0491 25.0498 14.6231 23.608C16.0917 23.2642 17.6388 22.9647 19.2419 22.7318ZM9.0962 36.6174C5.12759 34.9427 2.56032 32.7467 2.56032 31.0055C2.56032 29.2642 5.12759 27.0572 9.0962 25.3936C10.0603 24.9832 11.1141 24.6172 12.2016 24.2734C12.8406 26.4472 13.6814 28.7097 14.724 31.0277C13.6926 33.3346 12.863 35.586 12.2352 37.7487C11.1253 37.4049 10.0715 37.0278 9.0962 36.6174ZM15.1276 52.4661C13.6029 51.601 12.9415 48.3071 13.4572 44.0704C13.5805 43.0279 13.7823 41.9299 14.0289 40.8097C16.2262 41.3421 18.6253 41.7524 21.1478 42.0186C22.6612 44.0704 24.2307 45.9336 25.8114 47.564C22.1567 50.9245 18.7262 52.7655 16.3944 52.7655C15.8899 52.7545 15.4639 52.6546 15.1276 52.4661ZM41.7195 44.0149C42.2464 48.2516 41.5962 51.5456 40.0827 52.4217C39.7464 52.6214 39.3092 52.7101 38.7935 52.7101C36.4729 52.7101 33.0312 50.8801 29.3765 47.5418C30.946 45.9115 32.5155 44.0593 34.0065 42.0075C36.5401 41.7413 38.9392 41.331 41.1366 40.7875C41.3944 41.9077 41.5962 42.9835 41.7195 44.0149ZM46.0357 36.6174C45.0715 37.0278 44.0177 37.3938 42.9303 37.7376C42.2913 35.5638 41.4505 33.3013 40.4079 30.9833C41.4392 28.6764 42.2688 26.425 42.8966 24.2623C44.0065 24.6061 45.0603 24.9832 46.0469 25.3936C50.0155 27.0683 52.5827 29.2642 52.5827 31.0055C52.5715 32.7467 50.0043 34.9538 46.0357 36.6174Z" fill="#61DAFB"/>
<path d="M27.5603 36.074C30.3899 36.074 32.6836 33.8047 32.6836 31.0055C32.6836 28.2062 30.3899 25.937 27.5603 25.937C24.7308 25.937 22.437 28.2062 22.437 31.0055C22.437 33.8047 24.7308 36.074 27.5603 36.074Z" fill="#61DAFB"/>
</g>
<defs>
<clipPath id="clip0_132_106666">
<rect width="55" height="62" fill="white" transform="translate(0.0715332)"/>
</clipPath>
</defs>
</svg>
