<svg width="56" height="56" viewBox="0 0 56 56" fill="none" xmlns="http://www.w3.org/2000/svg">
<g filter="url(#filter0_i_125_1209)">
<path d="M28 0L30.0865 17.5105L38.7151 2.13137L33.9418 19.1074L47.799 8.20101L36.8926 22.0581L53.8686 17.2849L38.4895 25.9135L56 28L38.4895 30.0865L53.8686 38.7151L36.8926 33.9418L47.799 47.799L33.9418 36.8926L38.7151 53.8686L30.0865 38.4895L28 56L25.9135 38.4895L17.2849 53.8686L22.0581 36.8926L8.20101 47.799L19.1074 33.9418L2.13137 38.7151L17.5105 30.0865L0 28L17.5105 25.9135L2.13137 17.2849L19.1074 22.0581L8.20101 8.20101L22.0581 19.1074L17.2849 2.13137L25.9135 17.5105L28 0Z" fill="#ECFDFF"/>
</g>
<defs>
<filter id="filter0_i_125_1209" x="0" y="0" width="56" height="60" filterUnits="userSpaceOnUse" color-interpolation-filters="sRGB">
<feFlood flood-opacity="0" result="BackgroundImageFix"/>
<feBlend mode="normal" in="SourceGraphic" in2="BackgroundImageFix" result="shape"/>
<feColorMatrix in="SourceAlpha" type="matrix" values="0 0 0 0 0 0 0 0 0 0 0 0 0 0 0 0 0 0 127 0" result="hardAlpha"/>
<feOffset dy="4"/>
<feGaussianBlur stdDeviation="2"/>
<feComposite in2="hardAlpha" operator="arithmetic" k2="-1" k3="1"/>
<feColorMatrix type="matrix" values="0 0 0 0 0.158125 0 0 0 0 0.202112 0 0 0 0 0.2875 0 0 0 0.25 0"/>
<feBlend mode="normal" in2="shape" result="effect1_innerShadow_125_1209"/>
</filter>
</defs>
</svg>
